<svg xmlns="http://www.w3.org/2000/svg" width="202" height="111" fill="none"><g clip-path="url(#a)"><path fill="url(#b)" d="M193.433 12.17c4.456-1.964 14.235 13.505 18.567 21.485V111H-4V43.477c0 4.297 32.802 30.692 46.418 23.326S70.27 39.18 82.648 51.457c12.378 12.277 33.421 22.098 42.086 15.346 8.664-6.752 5.57-12.89 14.234-15.346 8.665-2.455 17.949 17.188 30.327 5.525 12.378-11.663 18.567-42.356 24.138-44.811Z"/><path stroke="#5D6278" stroke-linecap="round" stroke-width="2" d="M212 33.654c-4.332-7.98-14.111-23.447-18.567-21.483-5.571 2.455-11.76 33.145-24.138 44.807-12.378 11.662-21.662-7.98-30.327-5.524-8.664 2.455-5.57 8.593-14.234 15.345-8.665 6.751-29.708-3.07-42.086-15.345-12.379-12.276-26.614 7.98-40.23 15.345C28.802 74.164-4 47.77-4 43.474"/></g><defs><linearGradient id="b" x1="104" x2="104" y1="61.892" y2="111" gradientUnits="userSpaceOnUse"><stop stop-color="#22242E"/><stop offset="1" stop-color="#151619" stop-opacity="0"/></linearGradient><clipPath id="a"><rect width="202" height="111" fill="#fff" rx="8"/></clipPath></defs></svg>