<svg xmlns="http://www.w3.org/2000/svg" width="202" height="111" fill="none"><g clip-path="url(#a)"><path fill="url(#b)" d="M14.567 12.17C10.111 10.207.332 25.676-4 33.656V111h216V43.477c0 4.297-32.802 30.692-46.418 23.326s-27.851-27.623-40.23-15.346c-12.378 12.277-33.42 22.098-42.086 15.346-8.664-6.752-5.57-12.89-14.235-15.346-8.664-2.455-17.948 17.188-30.326 5.525C26.327 45.319 20.138 14.626 14.567 12.17Z"/><path stroke="#5D6278" stroke-linecap="round" stroke-width="2" d="M-4 33.654c4.332-7.98 14.111-23.447 18.567-21.483 5.57 2.455 11.76 33.145 24.138 44.807 12.378 11.662 21.662-7.98 30.326-5.524 8.665 2.455 5.57 8.593 14.235 15.345 8.665 6.751 29.708-3.07 42.086-15.345 12.379-12.276 26.614 7.98 40.23 15.345C179.198 74.164 212 47.77 212 43.474"/></g><defs><linearGradient id="b" x1="104" x2="104" y1="61.892" y2="111" gradientUnits="userSpaceOnUse"><stop stop-color="#22242E"/><stop offset="1" stop-color="#151619" stop-opacity="0"/></linearGradient><clipPath id="a"><rect width="202" height="111" fill="#fff" rx="8"/></clipPath></defs></svg>