<svg xmlns="http://www.w3.org/2000/svg" width="58" height="58" fill="none"><rect width="58" height="58" fill="url(#a)" rx="6"/><path fill="#fff" fill-rule="evenodd" d="M39.25 15.785c-1.658-5.76-8.93-7.566-13.09-3.25L11.753 27.484c-4.16 4.315-2.088 11.516 3.73 12.96l20.15 5.004c5.818 1.445 11.018-3.95 9.36-9.71L39.25 15.785Zm-14.854 7.263a1.557 1.557 0 1 1 3.023.75 1.557 1.557 0 0 1-3.023-.75Zm2.221-2.484a2.946 2.946 0 1 0-1.42 5.718 2.946 2.946 0 0 0 1.42-5.718Zm4.174 4.787c1.122.279 1.92.477 2.482.667.28.094.47.176.598.25.123.07.153.112.154.113.15.234.169.529.05.78 0 0-.023.046-.138.133a3.503 3.503 0 0 1-.56.324c-.533.26-1.3.56-2.377.98l-3.48 1.36-.033.012c-1.037.405-1.858.725-2.448 1.013-.3.147-.569.298-.79.465a1.78 1.78 0 0 0-.555.648 2.195 2.195 0 0 0 .137 2.12c.162.254.395.434.634.57.24.138.526.254.843.36.622.21 1.477.422 2.557.69l.035.01.68.168a.694.694 0 1 0 .335-1.347l-.68-.17c-1.123-.278-1.922-.477-2.484-.666a3.495 3.495 0 0 1-.597-.25c-.125-.071-.154-.114-.154-.114a.807.807 0 0 1-.05-.779s.023-.046.138-.133a3.5 3.5 0 0 1 .56-.324c.533-.26 1.3-.56 2.377-.98l3.48-1.36.033-.012c1.037-.405 1.857-.726 2.448-1.014.3-.146.569-.297.789-.464a1.78 1.78 0 0 0 .556-.648 2.195 2.195 0 0 0-.137-2.12 1.78 1.78 0 0 0-.634-.571 4.81 4.81 0 0 0-.843-.36c-.622-.21-1.477-.422-2.558-.69l-.034-.009-.316-.078a.694.694 0 0 0-.335 1.347l.317.079Zm1.27 10.426a1.557 1.557 0 1 1 3.023.75 1.557 1.557 0 0 1-3.023-.75Zm2.221-2.484a2.946 2.946 0 1 0-1.42 5.718 2.946 2.946 0 0 0 1.42-5.718Z" clip-rule="evenodd"/><defs><linearGradient id="a" x1="29" x2="29" y1="13" y2="68" gradientUnits="userSpaceOnUse"><stop stop-color="#FF015A"/><stop offset="1" stop-color="#990136"/></linearGradient></defs></svg>